# xmcd CD database file
#
# Track frame offsets:
#	150
#	12883
#	28408
#	40784
#	55827
#	71841
#	85766
#	102331
#	116746
#	134188
#	147446
#
# Disc length: 2129 seconds
#
# Revision: 0
# Processed by: cddbd v1.5.2PL0 Copyright (c) Steve Scherf et al.
# Submitted via: CDex 1.51
#
DISCID=a3084f0b
DTITLE=Kenny Rogers - Kenny Rogers
DYEAR=1976
DGENRE=Country
TTITLE0=Laura
TTITLE1=I Wasn't Man Enough
TTITLE2=Mother Country Music
TTITLE3=Why Don't We Go Somewhere And Love
TTITLE4=Green Green Grass Of Home
TTITLE5=Till I Get It Right
TTITLE6=Lucille
TTITLE7=The Son Of Hickory Holler's Tramp 
TTITLE8=Lay Down Beside Me
TTITLE9=Putting In Overtime At Home
TTITLE10=While I Play The Fiddle
EXTD=YEAR: 1976
EXTT0=
EXTT1=
EXTT2=
EXTT3=
EXTT4=
EXTT5=
EXTT6=
EXTT7=
EXTT8=
EXTT9=
EXTT10=
PLAYORDER=
